# xmcd
#
# Track frame offsets: 
#        150
#        16849
#        44704
#        63738
#        84593
#        117900
#        152656
#        185689
#
# Disc length: 3193 seconds
#
# Revision: 0
# Processed by: cddbd v1.5.2PL0 Copyright (c) Steve Scherf et al.
# Submitted via: ExactAudioCopy v1.0b1
#
DISCID=690c7708
DTITLE=Eric Clapton  - Bluesman  November 3, 1994 Los Angeles, CA - Di
DTITLE=sc 2
DYEAR=1900
DGENRE=
TTITLE0=I'm Tore Down
TTITLE1=Have You Ever Loved A Woman
TTITLE2=Crosscut Saw
TTITLE3=Five Long Years
TTITLE4=Crossroads
TTITLE5=Groaning The Blues
TTITLE6=Ain't Nobody's Business
TTITLE7=Sweet Home Chicago
EXTD=
EXTT0=
EXTT1=
EXTT2=
EXTT3=
EXTT4=
EXTT5=
EXTT6=
EXTT7=
PLAYORDER=
